<svg xmlns="http://www.w3.org/2000/svg" version="1.1" xmlns:xlink="http://www.w3.org/1999/xlink" xmlns:svgjs="http://svgjs.dev/svgjs" width="1500" height="1687" viewBox="0 0 1500 1687"><g transform="matrix(1,0,0,1,0,0)"><svg viewBox="0 0 320 360" data-background-color="#dedede" preserveAspectRatio="xMidYMid meet" height="1687" width="1500" xmlns="http://www.w3.org/2000/svg" xmlns:xlink="http://www.w3.org/1999/xlink"><g id="tight-bounds" transform="matrix(1,0,0,1,0,0)"><svg viewBox="0 0 320 360" height="360" width="320"><g><svg></svg></g><g><svg viewBox="0 0 320 360" height="360" width="320"><g><path d="M219.58 41.008c0.707 0 6.365 2.829 9.547 3.89-1.061 0.354-3.536-0.707-6.365-1.768 0.707 0 2.122 0.354 3.536 1.06-0.707-0.707-6.011-2.475-6.718-3.182M166.895 30.047c1.061-0.354 13.436 1.414 19.094 1.768 0.354-0.354-0.707-0.354-2.122-0.707 1.768-0.354 5.304 0.707 7.779 1.06-7.425 0.354-15.558-1.768-22.629-1.06-2.475 0-0.707-0.707-2.122-1.061M156.641 30.047c6.365 0 11.315 0 2.121 0.707-1.061-0.354-2.475-0.354-2.121-0.707M256.707 59.395c0.707 0 3.536 3.182 4.95 4.243-0.354 0.354-3.182-2.475-4.596-3.536 0.354 0.354 0 0-0.354-0.707M249.635 54.798c-2.829-2.475-3.889-2.475-4.243-3.889 2.475 1.414 4.243 2.829 4.243 3.889M204.022 32.522c0.354-0.354 1.061 0.354 2.829 0.707-2.122-0.354-1.768 0-1.061 0.707-2.475-0.354-3.182-0.707-2.475-1.414 1.414 0.707 1.768 0.354 0.707 0M103.602 36.765c0-0.354 1.414-1.061 2.475-1.414-1.061 0.707-0.707 1.061 1.061 0.353 0 0.354-2.122 1.061-3.536 1.768 0.707-0.354 1.414-1.414 0-0.707M211.094 28.986c-1.061 0.354-4.95-1.768-8.84-2.475-2.122-0.707 8.486 1.768 8.84 2.475M2.475 203.66c2.122 8.84 0.707 8.486 0 0M2.829 150.621c0.354-1.414 0.707-5.304 1.06-4.95-1.061 8.486-2.829 12.376-3.182 18.74 1.061-5.657-0.354 3.182-0.707 5.304 0.354 2.829 0.354-1.768 1.061-1.06 0.707 1.061-1.414 15.912-0.707 7.779-0.707 7.425 0 15.558 1.414 17.679-1.768 11.315 7.072 36.773 8.84 42.077 0.354 0.354 0-1.768 0.707-0.353 0.707 4.597 3.889 7.779 4.95 12.729 1.061 1.414 5.304 9.193 6.011 10.962 1.414 2.829 2.122 2.475 3.536 5.303 4.243 8.133 10.961 15.912 17.326 23.337 20.508 24.044 51.978 43.845 86.984 50.918 35.006 7.425 71.779 2.122 100.419-11.669 1.768-1.061 1.414-1.414 3.536-2.122 9.901-3.182 21.923-13.436 28.641-17.326 3.182-3.536 11.669-9.547 12.73-13.082 6.011-4.95 12.022-13.083 15.204-18.387 1.768-2.829 3.182-2.829 3.889-4.597-0.354 0 5.657-7.425 7.426-11.668-0.707 0-1.768 2.122-1.768 0 12.729-24.398 19.801-57.282 15.911-79.912 0.707 27.934-6.365 59.05-19.801 78.851-6.011 12.729-18.387 26.519-29.701 36.42-1.768 1.768-3.536 3.889-5.658 5.304-6.718 5.657-14.144 10.254-21.922 14.497-18.387 10.254-38.895 19.094-62.94 19.447 41.37-3.536 78.497-24.398 99.006-49.856-15.558 15.204-22.276 21.215-39.602 30.055-1.414 2.475-13.083 7.425-20.862 9.547 4.597-2.122 14.144-5.657 17.326-8.486-25.812 12.376-54.453 19.448-81.326 15.558 10.254 0 24.751 0.354 38.541-2.121 2.122-0.707 3.182-1.414 5.658-1.768 26.873-6.011 52.685-19.094 71.072-37.481-10.608 9.547-26.519 20.862-36.774 24.398 9.547-5.304 26.873-15.558 32.53-23.337-11.315 11.315-32.53 22.63-45.966 27.58-2.122 0.354 1.414-1.414-2.122 0-4.243 1.061-2.475 1.061-3.536 1.768-16.265 4.597-35.006 8.486-50.563 7.072-2.829-0.354-3.889-1.061-6.365-1.061-2.829-0.354-5.304-0.354-8.486-0.354-12.376-1.414-25.812-6.365-35.713-10.607-5.304-2.475-10.608-4.243-15.912-7.426-4.243-2.475-7.779-5.304-11.314-8.132-13.436-9.901-24.751-19.801-35.36-33.945-19.094-26.519-28.994-59.757-27.58-92.641 1.414-32.884 14.497-65.061 35.359-88.752-1.061 1.061 1.414-2.475 3.536-4.596 0 0.707-0.354 1.768 2.122-0.707 2.122-2.475-0.707-0.707 0.353-2.122 21.923-24.044 60.111-43.492 99.36-44.199 1.414-1.061 3.889-2.475 6.718-1.768 0 0.354-1.768 0.354-1.768 0.354 3.889-0.354 7.425-0.354 9.193 0.353 0.354-0.354-1.414-0.707 0-0.707 2.475 0.707 3.182 0 4.597 0.707-1.061 0-2.122 0-2.829 0.354 8.84 0 14.497 2.122 23.337 2.829-4.597-1.061-5.657-1.061-9.193-2.122 3.889 0.707 5.657 1.414 7.425 1.061-0.707 0-0.354-1.061 0.354-0.707 7.072 1.768 7.779 2.475 15.204 4.95 0.707-0.707-3.182-1.061-4.243-2.122 7.072 2.475 13.436 4.243 17.68 7.072-1.414-1.061-5.657-2.475-8.84-3.889-0.354 0.354 1.061 0.707 1.414 1.414-3.536-1.768-8.486-3.536-13.436-4.243 4.243 1.061 7.072 2.475 8.84 3.182-3.889-0.707-8.84-3.182-14.498-4.243 9.193 2.829 26.519 9.193 37.127 14.851-3.889-2.475-8.486-4.243-10.961-5.657 2.122 0.354 4.597 1.768 4.597 1.06 2.475 1.061 5.657 3.536 7.425 3.89-3.182-2.122-9.547-5.304-11.668-6.365 26.519 12.022 50.21 32.177 65.414 57.989 1.414 2.475 3.536 8.133 5.304 8.84-0.354-1.768-1.768-2.829-3.182-5.657 0.707 0 0.707-1.061 0-2.122-1.414-1.768 0 1.414-1.415-0.354-6.365-11.669-14.144-21.923-26.165-33.237 6.718 6.365 1.768 1.768 0.353-0.354 9.193 8.133 19.801 21.923 24.398 28.995-0.707-1.061-1.061-1.768-0.707-1.768 8.486 14.497 13.79 27.58 19.094 46.32 0.354 0.354 0-1.414 0.707-0.353 3.536 14.851 4.597 27.227 4.243 38.541 2.829-19.094-3.536-48.796-14.851-72.133-1.414-2.829-1.414-0.707-2.829-3.889 0-1.061-1.061-3.182-1.768-4.597-14.144-23.337-31.47-39.956-51.978-53.038 1.414 0.707 4.243 2.829 4.244 2.475-38.188-25.105-82.387-28.641-118.807-20.862-2.475 1.061-3.536 2.122-6.365 3.536 5.304-1.768 8.486-2.122 13.437-3.183 1.061-1.061-4.597 0.354-2.122-0.707 0.354 0.354 4.95-0.707 6.011-0.353 0 0.354-1.414 0.707-1.768 1.06 11.669-2.475 23.691-2.829 33.945-2.121-6.011 0.354-16.972-0.707-20.508 1.061 3.536-0.354 8.486-0.707 11.668-0.354-4.243 0-12.022 0.354-15.558 0.707-0.354-0.354 5.657-1.061 1.768-1.06-1.768 0.354-4.597 0.354-5.657 1.414-30.409 2.829-60.111 18.74-80.973 37.481-4.243 3.536-9.193 7.425-12.375 11.314-7.779 8.84-12.729 17.68-18.387 25.459 3.536-7.425 11.315-18.74 20.508-28.287 9.193-9.547 19.094-17.68 24.398-21.923 0 1.414 8.486-5.304 11.669-7.425-2.122 1.768 1.414-0.707 2.121-0.354 11.315-6.718 20.508-9.193 30.763-13.083-2.475 0.707-4.597 1.414-4.951 1.061 2.475-0.707 3.889-1.414 3.536-1.768-9.901 2.829-25.459 9.547-37.834 16.972 22.276-15.204 50.564-24.398 78.497-24.751 27.934-0.707 55.16 6.365 76.729 17.68 14.497 6.365 28.287 18.033 39.249 29.348 3.182 2.829 0.707-0.707 5.304 4.243-1.414-0.707-2.475-1.414-0.707 0.707 2.829 3.182-0.707-2.475 3.889 3.182-0.354 0-1.768-1.768-1.768-1.061 12.376 10.961 21.923 30.762 27.58 43.846-1.414-5.304-4.95-12.729-7.779-18.033 8.486 15.558 11.315 24.751 14.851 38.541 1.414 1.061-0.707-4.95 0.707-2.121 0.354 2.122 0.707 8.84 2.122 9.9-1.061-6.718-2.829-14.851-4.243-16.265 1.061 0.707-1.768-8.133-3.536-10.254-0.707-5.657-5.657-15.558-9.901-22.984-15.204-29.702-42.431-54.099-72.839-67.536 0-0.707-1.768-1.414-2.476-2.121-30.055-12.729-66.122-16.265-100.773-8.133-35.006 8.486-67.889 28.641-91.227 57.636 1.061-3.536 9.901-10.254 10.255-13.083-10.254 10.961-21.215 25.459-28.641 41.016-7.779 15.558-12.022 31.47-13.79 43.138" fill="#000000" fill-rule="nonzero" stroke="none" stroke-width="1" stroke-linecap="butt" stroke-linejoin="miter" stroke-miterlimit="10" stroke-dasharray="" stroke-dashoffset="0" font-family="none" font-weight="none" font-size="none" text-anchor="none" style="mix-blend-mode: normal" data-fill-palette-color="tertiary"></path></g><g transform="matrix(1,0,0,1,48,120.2620653402102)"><svg viewBox="0 0 224 119.47586931957959" height="119.47586931957959" width="224"><g><svg viewBox="0 0 224 119.47586931957959" height="119.47586931957959" width="224"><g><svg viewBox="0 0 224 119.47586931957959" height="119.47586931957959" width="224"><g id="textblocktransform"><svg viewBox="0 0 224 119.47586931957959" height="119.47586931957959" width="224" id="textblock"><g><svg viewBox="0 0 224 83.77235772357724" height="83.77235772357724" width="224"><g transform="matrix(1,0,0,1,0,0)"><svg width="224" viewBox="4.25 -36.3 123 46" height="83.77235772357724" data-palette-color="#000000"><path d="M69.3 3.45Q69.55 3.6 69.73 4 69.9 4.4 69.9 4.8L69.9 4.8Q69.9 6.2 68.13 7.33 66.35 8.45 63.53 9.08 60.7 9.7 57.7 9.7L57.7 9.7Q50.95 9.7 42.58 6.45 34.2 3.2 26.38-2.6 18.55-8.4 13.45-15.6L13.45-15.6Q11.6-8 10.15-1.25L10.15-1.25Q9.95-0.45 9.73-0.25 9.5-0.05 8.9 0L8.9 0Q8.05 0.05 7.55 0.18 7.05 0.3 6.7 0.6L6.7 0.6Q6.15 0.6 6.15 0.25L6.15 0.25Q7.95-4.15 9.88-11.45 11.8-18.75 13.23-25.38 14.65-32 14.65-32.7L14.65-32.7Q14.65-32.85 14.53-33.02 14.4-33.2 14.1-33.2L14.1-33.2Q13.2-33.2 8.95-32.95L8.95-32.95Q6.25-32.75 5.55-32.75L5.55-32.75Q4.75-32.75 4.5-32.88 4.25-33 4.25-33.4L4.25-33.4Q4.25-34.15 4.63-35.23 5-36.3 5.55-36.3L5.55-36.3Q5.65-35.45 7.35-35.2 9.05-34.95 11.85-34.95L11.85-34.95Q14.05-34.95 15.93-35.08 17.8-35.2 19.5-35.35L19.5-35.35 22.25-35.6Q22.25-34.85 21.95-33.5L21.95-33.5 18.4-33.4Q18.1-33.4 17.85-33.23 17.6-33.05 17.55-32.75L17.55-32.75Q16-26.4 13.95-17.75L13.95-17.75Q16.4-19.55 23.15-25L23.15-25Q27.65-28.65 30.9-31.18 34.15-33.7 37.5-35.9L37.5-35.9 37.8-35.9Q38.8-35.35 40.35-34.85L40.35-34.85 40.35-34.45Q39.2-34.65 30.18-28 21.15-21.35 15.35-16.65L15.35-16.65Q20.85-9.3 28.1-3.78 35.35 1.75 43 4.73 50.65 7.7 57.35 7.7L57.35 7.7Q60.35 7.7 62.53 7.13 64.7 6.55 66.15 5.68 67.6 4.8 69.3 3.45L69.3 3.45ZM65-17.85Q65.2-17.8 65.35-17.55 65.5-17.3 65.5-17L65.5-17Q65.5-15.95 64.52-14.98 63.55-14 61.97-13.4 60.4-12.8 58.8-12.8L58.8-12.8Q56.3-12.8 54.52-14.1 52.75-15.4 52.25-17.75L52.25-17.75Q50-17.5 48.12-14.9 46.25-12.3 45.5-9.25L45.5-9.25Q45.4-8.75 44.75-6.18 44.1-3.6 43.5-0.1L43.5-0.1Q43.45 0.05 43.37 0.13 43.3 0.2 43.05 0.2L43.05 0.2Q42.7 0.2 42-0.1 41.3-0.4 41.3-0.75L41.3-0.75Q41.3-1.45 41.55-2.6L41.55-2.6Q44.6-16.7 45.5-20.05L45.5-20.05Q45.6-20.5 45.72-20.65 45.85-20.8 46.15-20.8L46.15-20.8Q46.35-20.8 47-20.48 47.65-20.15 48.05-19.8L48.05-19.8 47.15-16.9 46.85-15.9Q48-17.7 49.5-18.8 51-19.9 52.7-19.9L52.7-19.9Q53.2-19.9 53.7-19.8 54.2-19.7 54.4-19.55L54.4-19.55Q54.4-17.1 55.67-15.93 56.95-14.75 59.25-14.75L59.25-14.75Q61.3-14.75 62.65-15.45 64-16.15 65-17.85L65-17.85ZM126.65 3.45Q126.9 3.6 127.07 4 127.25 4.4 127.25 4.8L127.25 4.8Q127.25 6.2 125.47 7.33 123.7 8.45 120.87 9.08 118.05 9.7 115.05 9.7L115.05 9.7Q108.3 9.7 99.92 6.45 91.55 3.2 83.72-2.6 75.9-8.4 70.8-15.6L70.8-15.6Q68.95-8 67.5-1.25L67.5-1.25Q67.3-0.45 67.07-0.25 66.84-0.05 66.25 0L66.25 0Q65.4 0.05 64.9 0.18 64.4 0.3 64.05 0.6L64.05 0.6Q63.5 0.6 63.5 0.25L63.5 0.25Q65.3-4.15 67.22-11.45 69.15-18.75 70.57-25.38 72-32 72-32.7L72-32.7Q72-32.85 71.87-33.02 71.75-33.2 71.45-33.2L71.45-33.2Q70.55-33.2 66.3-32.95L66.3-32.95Q63.6-32.75 62.9-32.75L62.9-32.75Q62.1-32.75 61.85-32.88 61.6-33 61.6-33.4L61.6-33.4Q61.6-34.15 61.97-35.23 62.35-36.3 62.9-36.3L62.9-36.3Q63-35.45 64.7-35.2 66.4-34.95 69.2-34.95L69.2-34.95Q71.4-34.95 73.27-35.08 75.15-35.2 76.84-35.35L76.84-35.35 79.59-35.6Q79.59-34.85 79.3-33.5L79.3-33.5 75.75-33.4Q75.45-33.4 75.2-33.23 74.95-33.05 74.9-32.75L74.9-32.75Q73.34-26.4 71.3-17.75L71.3-17.75Q73.75-19.55 80.5-25L80.5-25Q85-28.65 88.25-31.18 91.5-33.7 94.84-35.9L94.84-35.9 95.15-35.9Q96.15-35.35 97.7-34.85L97.7-34.85 97.7-34.45Q96.55-34.65 87.52-28 78.5-21.35 72.7-16.65L72.7-16.65Q78.2-9.3 85.45-3.78 92.7 1.75 100.34 4.73 108 7.7 114.7 7.7L114.7 7.7Q117.7 7.7 119.87 7.13 122.05 6.55 123.5 5.68 124.95 4.8 126.65 3.45L126.65 3.45Z" opacity="1" transform="matrix(1,0,0,1,0,0)" fill="#000000" class="wordmark-text-0" data-fill-palette-color="primary" id="text-0"></path></svg></g></svg></g><g transform="matrix(1,0,0,1,13.32800000000006,103.54900084552847)"><svg viewBox="0 0 210.67199999999994 15.926868474051119" height="15.926868474051119" width="210.67199999999994"><g transform="matrix(1,0,0,1,0,0)"><svg width="210.67199999999994" viewBox="3.05 -38.2 645.3900000000001 48.800000000000004" height="15.926868474051119" data-palette-color="#61777f"><path d="M10.1 0.8Q8.7 0.8 7.15-0.3 5.6-1.4 4.95-2.8L4.95-2.8Q4.35-4.1 3.73-11.05 3.1-18 3.1-21.4L3.1-21.4 3.1-24.05Q3.05-25.2 3.05-26.6L3.05-26.6Q3.05-29.2 3.35-31.75L3.35-31.75Q3.55-33 3.88-33.9 4.2-34.8 4.8-35.65L4.8-35.65Q5.9-37.35 8.1-37.9L8.1-37.9Q9.25-38.2 10.65-38.2L10.65-38.2Q11.6-38.2 12.58-37.65 13.55-37.1 13.55-36.35L13.55-36.35Q13.55-35.8 12.75-35.8L12.75-35.8Q12.45-35.8 11.6-36.15L11.6-36.15Q10.85-36.5 10.25-36.5L10.25-36.5Q8.85-36.5 7.73-35.93 6.6-35.35 5.95-34.4L5.95-34.4Q5.4-33.6 5-32.2 4.6-30.8 4.5-29.4L4.5-29.4Q4.35-28.15 4.35-26.4L4.35-26.4 4.4-23.6Q4.45-22.4 4.45-21L4.45-21Q4.45-17.55 5.15-10.85 5.85-4.15 6.5-3.1L6.5-3.1Q7.1-2.15 8.28-1.65 9.45-1.15 10.75-1.15L10.75-1.15Q13.05-1.15 14.25-2.6L14.25-2.6Q14.7-3.2 15.2-3.2L15.2-3.2Q15.65-3.2 15.65-2.5L15.65-2.5Q15.65-1.6 15.1-0.93 14.55-0.25 13.6 0.1L13.6 0.1Q12 0.8 10.1 0.8L10.1 0.8ZM25.3 0.95Q19.45 0.95 19.45-17.45L19.45-17.45 19.45-19.2Q19.45-33.15 23.05-33.15L23.05-33.15Q23.3-33.15 23.75-33L23.75-33Q25.35-32.45 26.9-32.3L26.9-32.3Q27.85-32.1 28.8-30.35L28.8-30.35Q29.85-28.55 30.37-25.6 30.9-22.65 30.9-19.55L30.9-19.55 30.8-19.3Q30.8-17.65 30.85-16.35L30.85-16.35 30.9-13.35Q30.9-10.8 30.7-8.75L30.7-8.75Q30.4-5.65 29.7-3.4L29.7-3.4Q29.25-2.05 28.67-1.15 28.1-0.25 27.25 0.35L27.25 0.35Q26.45 0.95 25.3 0.95L25.3 0.95ZM25.1-0.5Q27.05-0.5 28-3.25L28-3.25Q28.95-6.05 29.15-8.95L29.15-8.95Q29.35-11.95 29.35-13.75L29.35-13.75Q29.35-15.75 29.05-19.65L29.05-19.65Q28.8-24 28.8-25.55L28.8-25.55 28.6-25.95 28.7-26.2Q28.7-28.4 27.47-30 26.25-31.6 24.5-31.6L24.5-31.6Q22.2-31.6 21.75-29.4L21.75-29.4Q21.65-28.65 21.55-27.25L21.55-27.25Q21.55-23.55 21.25-22.2L21.25-22.2Q21.25-21.45 21.1-19.85L21.1-19.85 21-17.5Q21-16.4 21.05-15.55L21.05-15.55 21.1-13.55Q21.1-11.2 21.5-8.15L21.5-8.15Q21.8-5.9 22.2-4.35 22.6-2.8 23.35-1.7L23.35-1.7Q24.1-0.5 25.1-0.5L25.1-0.5ZM50.15 0.2Q49.75 0.2 49.57-0.1 49.4-0.4 49.25-1L49.25-1Q49.2-1.4 49.05-1.7L49.05-1.7 49.09-1.85Q48.7-4.2 47.4-7.6L47.4-7.6 46.5-10.2Q46.4-10.3 45.55-12.75L45.55-12.75 45.15-13.95Q40.65-27.85 39.5-29L39.5-29Q39.09-27.65 39.09-25.5L39.09-25.5Q39.09-24.35 39.15-23.5L39.15-23.5 39.2-21.55 39.15-20.35Q39.09-19.8 39.09-19.15L39.09-19.15Q39.09-18.05 39.2-17.25L39.2-17.25Q39.3-15.65 39.3-15.65L39.3-15.65 39.15-15.65Q39.15-7.3 39.5-6.45L39.5-6.45 39.5-1.95Q39.7-1.55 39.7-0.9L39.7-0.9Q39.7-0.5 39.42-0.2 39.15 0.1 38.75 0.1L38.75 0.1Q37.7 0.1 37.7-2.6L37.7-2.6 37.8-4.2Q37.9-4.95 37.9-5.85L37.9-5.85Q37.9-8.25 37.75-13.05L37.75-13.05Q37.59-17.85 37.59-20.25L37.59-20.25Q37.59-21.7 37.75-24.7L37.75-24.7Q37.9-27.65 37.9-29.1L37.9-29.1 37.9-29.75Q37.9-32.2 38.8-32.95L38.8-32.95 38.95-32.8 39.45-32.9Q39.65-32.85 39.9-32.6L39.9-32.6Q40.09-32.4 40.09-32.15L40.09-32.15 40.2-31.85Q40.2-31.75 40.22-31.68 40.25-31.6 40.25-31.6L40.25-31.6Q41.05-28.05 43.84-21.65L43.84-21.65Q46.7-14.9 47.4-12.7L47.4-12.7Q47.9-10.95 48.2-9.6L48.2-9.6Q49.15-5.35 50.45-3.05L50.45-3.05 50.55-3.2Q51.7-14.3 51.7-30.45L51.7-30.45 51.65-31.05Q51.59-31.3 51.59-31.7L51.59-31.7Q51.59-32.75 52.3-32.75L52.3-32.75Q52.75-32.75 53.07-32.3 53.4-31.85 53.4-31.3L53.4-31.3 53.4-27.95 53.15-27.55Q53.15-22.8 52.59-11.95 52.05-1.1 51.55-0.15L51.55-0.15 50.7 0.05 50.7 0.1 50.65 0.05 50.15 0.2ZM60.94 0.6Q60.39 0.5 59.89 0.18 59.39-0.15 59.34-0.6L59.34-0.6 59.59-1Q59.79-1 60.49-0.85L60.49-0.85Q61.04-0.65 61.39-0.65L61.39-0.65Q62.49-0.65 63.34-1.53 64.19-2.4 64.64-3.8L64.64-3.8Q65.34-6.4 65.34-8.7L65.34-8.7Q65.34-12.15 63.24-16.1L63.24-16.1Q61.94-18.4 61.24-19.75 60.54-21.1 59.99-22.85L59.99-22.85Q59.34-24.9 59.34-26.8L59.34-26.8Q59.34-28.6 60.24-31.05L60.24-31.05Q60.69-32.2 61.52-32.93 62.34-33.65 63.29-33.65L63.29-33.65Q63.94-33.65 64.57-33.2 65.19-32.75 65.19-32.25L65.19-32.25Q65.19-31.85 64.54-31.85L64.54-31.85Q64.34-31.85 64.04-32L64.04-32Q63.74-32.15 63.49-32.15L63.49-32.15Q62.74-32.15 62.14-31.55 61.54-30.95 61.24-30L61.24-30Q60.64-28.15 60.64-26.6L60.64-26.6Q60.64-25.65 60.89-24.65L60.89-24.65Q60.94-24.35 60.99-24.15 61.04-23.95 61.04-23.85L61.04-23.85 61.34-22.85 61.59-21.95 61.99-21.05Q62.14-20.7 62.32-20.43 62.49-20.15 62.64-19.9L62.64-19.9 63.24-18.85Q63.44-18.55 64.09-17.43 64.74-16.3 65.29-15.05L65.29-15.05Q65.79-14 66.04-13.08 66.29-12.15 66.49-10.85L66.49-10.85Q66.64-9.6 66.64-8.1L66.64-8.1Q66.64-5.7 65.99-3.6L65.99-3.6Q65.09-1.1 63.39-0.1L63.39-0.1Q62.44 0.5 61.19 0.5L61.19 0.5 60.94 0.6ZM64.89-32L64.94-32Q64.94-32.05 64.89-32.05L64.89-32.05 64.89-32ZM76.54-0.3L75.99-0.7 75.94-2.55Q75.89-3.35 75.89-4.35L75.89-4.35Q75.89-4.85 75.94-5.2L75.94-5.2 75.99-6.1Q75.99-6.6 75.79-7.3L75.79-7.3Q75.79-10.65 75.29-19.75L75.29-19.75Q74.79-28.55 74.74-31.7L74.74-31.7Q71.64-31.7 70.59-31.85L70.59-31.85Q69.59-32.1 69.59-32.65L69.59-32.65Q69.84-33.2 70.54-33.2L70.54-33.2Q72.04-33.2 74.89-33L74.89-33Q77.49-32.75 79.24-32.75L79.24-32.75 80.29-32.75 81.34-32.8Q82.24-32.8 82.24-32.15L82.24-32.15Q82.24-31.85 81.92-31.68 81.59-31.5 81.14-31.5L81.14-31.5Q80.14-31.5 79.04-31.6L79.04-31.6 76.89-31.7Q76.69-31.7 76.69-31.55L76.69-31.55Q76.64-31.4 76.64-30.6L76.64-30.6Q76.64-25.75 77.24-15.9L77.24-15.9Q77.79-5.7 77.79-1.25L77.79-1.25Q77.79-0.9 77.37-0.6 76.94-0.3 76.54-0.3L76.54-0.3ZM97.39 0.45Q96.64 0.45 96.44 0.28 96.24 0.1 96.14-0.65L96.14-0.65Q95.69-4.3 95.59-5.2L95.59-5.2 95.34-7.2Q94.24-7.45 92.84-7.45L92.84-7.45 91.04-7.55Q89.84-7.7 89.29-7.7L89.29-7.7Q88.99-7.7 88.94-7.45L88.94-7.45Q88.94-7.3 88.89-7.3L88.89-7.3 88.79-6.3Q88.74-5.4 88.24-2.7L88.24-2.7Q87.99-1.35 87.64-0.6L87.64-0.6Q87.24 0.25 86.89 0.25L86.89 0.25Q86.59 0.25 86.24-0.03 85.89-0.3 85.89-0.6L85.89-0.6 85.94-0.75 85.99-0.9Q86.89-4.45 87.49-7.95L87.49-7.95 88.09-11.05 88.69-14.85Q88.69-14.85 89.24-18.15L89.24-18.15Q89.49-19.5 90.14-22.5L90.14-22.5Q90.84-25.9 90.99-27.15L90.99-27.15Q91.04-27.3 91.19-29L91.19-29Q91.39-30.9 91.54-31.8L91.54-31.8Q91.69-33.1 91.84-33.3L91.84-33.3 92.19-33.3Q92.34-33.25 92.54-33.25L92.54-33.25Q93.14-33.25 93.44-33.55L93.44-33.55Q93.79-33.55 94.06-33.33 94.34-33.1 94.34-32.8L94.34-32.8Q94.34-30.4 94.69-27.3L94.69-27.3Q94.89-25.7 94.99-24.65L94.99-24.65Q95.54-18.2 97.79-0.45L97.79-0.45 97.79-0.3Q97.79 0.2 97.39 0.45L97.39 0.45ZM94.59-8.55L95.09-8.55Q94.59-15.75 93.19-29.8L93.19-29.8 90.49-16.45Q89.34-10.7 89.34-9.2L89.34-9.2Q89.34-8.95 91.24-8.75 93.14-8.55 94.59-8.55L94.59-8.55ZM115.94 0.2Q115.54 0.2 115.36-0.1 115.19-0.4 115.04-1L115.04-1Q114.99-1.4 114.84-1.7L114.84-1.7 114.89-1.85Q114.49-4.2 113.19-7.6L113.19-7.6 112.29-10.2Q112.19-10.3 111.34-12.75L111.34-12.75 110.94-13.95Q106.44-27.85 105.29-29L105.29-29Q104.89-27.65 104.89-25.5L104.89-25.5Q104.89-24.35 104.94-23.5L104.94-23.5 104.99-21.55 104.94-20.35Q104.89-19.8 104.89-19.15L104.89-19.15Q104.89-18.05 104.99-17.25L104.99-17.25Q105.09-15.65 105.09-15.65L105.09-15.65 104.94-15.65Q104.94-7.3 105.29-6.45L105.29-6.45 105.29-1.95Q105.49-1.55 105.49-0.9L105.49-0.9Q105.49-0.5 105.21-0.2 104.94 0.1 104.54 0.1L104.54 0.1Q103.49 0.1 103.49-2.6L103.49-2.6 103.59-4.2Q103.69-4.95 103.69-5.85L103.69-5.85Q103.69-8.25 103.54-13.05L103.54-13.05Q103.39-17.85 103.39-20.25L103.39-20.25Q103.39-21.7 103.54-24.7L103.54-24.7Q103.69-27.65 103.69-29.1L103.69-29.1 103.69-29.75Q103.69-32.2 104.59-32.95L104.59-32.95 104.74-32.8 105.24-32.9Q105.44-32.85 105.69-32.6L105.69-32.6Q105.89-32.4 105.89-32.15L105.89-32.15 105.99-31.85Q105.99-31.75 106.01-31.68 106.04-31.6 106.04-31.6L106.04-31.6Q106.84-28.05 109.64-21.65L109.64-21.65Q112.49-14.9 113.19-12.7L113.19-12.7Q113.69-10.95 113.99-9.6L113.99-9.6Q114.94-5.35 116.24-3.05L116.24-3.05 116.34-3.2Q117.49-14.3 117.49-30.45L117.49-30.45 117.44-31.05Q117.39-31.3 117.39-31.7L117.39-31.7Q117.39-32.75 118.09-32.75L118.09-32.75Q118.54-32.75 118.86-32.3 119.19-31.85 119.19-31.3L119.19-31.3 119.19-27.95 118.94-27.55Q118.94-22.8 118.39-11.95 117.84-1.1 117.34-0.15L117.34-0.15 116.49 0.05 116.49 0.1 116.44 0.05 115.94 0.2ZM130.03-0.3L129.48-0.7 129.43-2.55Q129.38-3.35 129.38-4.35L129.38-4.35Q129.38-4.85 129.43-5.2L129.43-5.2 129.48-6.1Q129.48-6.6 129.28-7.3L129.28-7.3Q129.28-10.65 128.78-19.75L128.78-19.75Q128.28-28.55 128.23-31.7L128.23-31.7Q125.13-31.7 124.08-31.85L124.08-31.85Q123.08-32.1 123.08-32.65L123.08-32.65Q123.33-33.2 124.03-33.2L124.03-33.2Q125.53-33.2 128.38-33L128.38-33Q130.98-32.75 132.73-32.75L132.73-32.75 133.78-32.75 134.83-32.8Q135.73-32.8 135.73-32.15L135.73-32.15Q135.73-31.85 135.41-31.68 135.08-31.5 134.63-31.5L134.63-31.5Q133.63-31.5 132.53-31.6L132.53-31.6 130.38-31.7Q130.18-31.7 130.18-31.55L130.18-31.55Q130.13-31.4 130.13-30.6L130.13-30.6Q130.13-25.75 130.73-15.9L130.73-15.9Q131.28-5.7 131.28-1.25L131.28-1.25Q131.28-0.9 130.86-0.6 130.43-0.3 130.03-0.3L130.03-0.3ZM141.93 0.65Q141.23 0.65 141.08-0.5L141.08-0.5Q141.18-0.8 141.18-2.15L141.18-2.15Q141.18-6.75 141.33-15.8L141.33-15.8Q141.48-24.8 141.48-28.8L141.48-28.8 141.58-30.6 141.73-32.1Q141.73-32.45 142.08-32.45L142.08-32.45Q142.33-32.45 142.78-32.3L142.78-32.3 142.93-32.25Q142.93-31.15 142.88-30.25L142.88-30.25 142.88-28.3 142.88-22.85Q142.93-20.45 142.93-17.4L142.93-17.4Q142.88-17.15 142.88-16.3L142.88-16.3 142.83-15.25Q142.78-14.25 142.78-13.2L142.78-13.2Q142.78-12.05 142.83-11.1L142.83-11.1 142.88-8.95 142.73-8.55 142.78-8.6Q142.78-8.45 142.73-8.4L142.73-8.4 142.73-8.2Q142.73-7.8 142.88-7.5L142.88-7.5 142.73-2.7 142.73-2.4Q142.73-1.55 142.78-1.4L142.78-1.4Q142.78-1.15 143.03-1.15L143.03-1.15 145.63-1.05Q146.78-1.05 147.21-1.03 147.63-1 147.73-1L147.73-1 147.88-1Q148.13-1 148.38-0.73 148.63-0.45 148.63-0.15L148.63-0.15Q148.63 0.45 147.83 0.5L147.83 0.5Q146.98 0.45 143.68 0.45L143.68 0.45 143.78 0.5Q143.28 0.5 142.83 0.55L142.83 0.55Q142.43 0.65 141.93 0.65L141.93 0.65ZM156.78 0.75Q156.63 0.75 156.38 0.55 156.13 0.35 156.08 0.2L156.08 0.2Q156.53-1 156.53-8.55L156.53-8.55Q156.53-10 156.38-12.7L156.38-12.7 156.13-16.25 155.83-16.9 155.98-17.5Q155.68-18.2 155.08-19.85 154.48-21.5 153.88-23.2L153.88-23.2Q152.08-27.95 151.53-30.05L151.53-30.05Q151.23-31.05 151.08-31.9L151.08-31.9 151.78-32.45Q152.28-32.35 153.23-29.25L153.23-29.25Q153.98-27.05 154.58-24.9L154.58-24.9 155.18-23Q156.08-19.9 156.48-19.8L156.48-19.8 156.68-20.7 156.58-20.95Q156.98-21.45 157.58-24.5L157.58-24.5Q158.23-28 158.83-30.4L158.83-30.4Q159.48-33.2 160.13-33.2L160.13-33.2Q160.38-33.2 160.58-33.05 160.78-32.9 160.78-32.7L160.78-32.7Q160.78-31.95 159.28-26.8L159.28-26.8Q158.53-24.35 158.03-22.2L158.03-22.2Q157.43-19.65 157.43-17.65L157.43-17.65Q157.68-17.15 157.68-16.8L157.68-16.8Q157.68-16.55 157.53-16.1L157.53-16.1Q157.38-15.65 157.38-15.35L157.38-15.35Q157.38-15.1 157.58-13.1L157.58-13.1Q157.78-11.75 157.78-10.8L157.78-10.8Q157.78-8.6 157.83-6.85L157.83-6.85 157.83-2.85 157.83-2.65Q157.83 0.75 156.78 0.75L156.78 0.75ZM185.12 10.6Q184.17 10.6 183.15 10.4 182.12 10.2 181.82 9.8L181.82 9.8Q181.82 7.7 181.42 5.8L181.42 5.8Q181.42 5.85 181.07 3.6L181.07 3.6 180.67 1.65Q179.27 1.35 178.45 0.98 177.62 0.6 176.92-0.2L176.92-0.2Q175.57-1.7 175.27-5.55L175.27-5.55Q174.72-11.45 174.72-17.25L174.72-17.25 174.72-17.5Q174.72-33.1 179.67-33.4L179.67-33.4Q180.07-33.25 180.77-33.1L180.77-33.1 181.82-32.75Q184.07-31.6 185.02-29.4L185.02-29.4Q186.07-26.95 186.32-24.65L186.32-24.65Q186.52-22.2 186.52-19.95L186.52-19.95 186.52-17.6Q186.52-14.05 185.77-7.75L185.77-7.75Q185.37-4.45 184.65-2.02 183.92 0.4 183.02 0.95L183.02 0.95Q182.97 1 182.67 1.1L182.67 1.1Q182.07 1.4 182.07 1.7L182.07 1.7Q182.07 3.45 182.47 5.25L182.47 5.25Q182.52 5.7 182.87 7.2L182.87 7.2Q183.07 8 183.22 8.9L183.22 8.9Q183.57 9.25 184.77 9.25L184.77 9.25Q185.77 9.25 185.77 9.95L185.77 9.95Q185.77 10.6 185.12 10.6L185.12 10.6ZM180.07 0.35Q180.32 0.35 180.77 0.2L180.77 0.2Q181.32 0.05 181.52 0.05L181.52 0.05Q182.47 0.05 183.35-2.58 184.22-5.2 184.62-8.45L184.62-8.45Q185.02-11.5 185.02-12.55L185.02-12.55 185.02-21.3Q185.02-32.1 179.52-32.1L179.52-32.1Q178.72-32.1 178.12-31.2 177.52-30.3 177.17-28.75L177.17-28.75Q176.37-25.5 176.17-22.1L176.17-22.1Q175.97-18.85 175.97-17.15L175.97-17.15 176.07-16.65 176.17-16.2 176.17-14.05Q176.17 0.35 180.07 0.35L180.07 0.35ZM197.82 0.75Q197.02 0.75 196.09 0.23 195.17-0.3 194.57-1L194.57-1Q193.87-1.9 193.47-6.05 193.07-10.2 192.97-15.55L192.97-15.55Q192.97-16.75 192.92-17.35L192.92-17.35Q192.82-29.9 192.52-32.2L192.52-32.2 192.82-32.9Q193.97-32.75 193.97-30.15L193.97-30.15 194.12-16.9Q194.12-15.5 194.37-11.6L194.37-11.6Q194.67-8.1 194.67-6.3L194.67-6.3Q194.67-0.6 198.42-0.6L198.42-0.6Q200.72-0.6 201.37-11.1L201.37-11.1 201.42-12.1Q201.77-25.85 201.77-32.45L201.77-32.45 201.72-32.9Q201.67-33.1 201.67-33.35L201.67-33.35Q201.67-33.9 202.52-33.9L202.52-33.9Q203.12-33.9 203.27-33.6L203.27-33.6Q203.37-33.1 203.37-31.85L203.37-31.85Q203.37-28.05 203.07-26.75L203.07-26.75 203.12-26.45Q203.12-25.8 202.97-24.45L202.97-24.45 202.87-22.45 202.87-21.95Q202.92-21.75 202.92-21.45L202.92-21.45Q202.82-20.25 202.82-19.15L202.82-19.15Q202.77-18.8 202.77-18.05L202.77-18.05Q202.67-13.3 202.57-9.8L202.57-9.8Q202.42-5.45 201.37-2.45L201.37-2.45Q200.27 0.75 197.82 0.75L197.82 0.75ZM211.82 0.65Q210.92 0.65 210.82-0.4L210.82-0.4 210.82-1.05Q210.87-1.3 210.87-1.65L210.87-1.65 210.67-1.85Q211.07-2.9 211.07-3.9L211.07-3.9Q211.07-5.05 210.92-7.2L210.92-7.2 210.82-10.5Q210.82-13 210.97-18L210.97-18Q211.17-22.45 211.17-25.55L211.17-25.55 211.07-28.55Q210.97-29.9 210.97-31.55L210.97-31.55Q210.97-32.3 211.32-32.63 211.67-32.95 212.42-32.95L212.42-32.95Q212.92-32.95 213.22-32.65L213.22-32.65Q213.32-32.6 214.67-32.45L214.67-32.45Q215.92-32.3 216.82-32L216.82-32Q217.77-31.7 217.77-31.25L217.77-31.25Q217.77-30.75 216.82-30.25L216.82-30.25Q213.97-31.2 212.77-31.2L212.77-31.2 212.52-30.9Q212.57-30.45 212.57-28.75L212.57-28.75Q212.57-26.6 212.47-24.9L212.47-24.9Q212.42-23.15 212.42-21L212.42-21Q212.42-19.6 213.12-19.6L213.12-19.6 213.92-19.65Q214.32-19.7 214.77-19.7L214.77-19.7Q216.72-19.7 216.72-18.8L216.72-18.8Q216.72-18.25 216.47-17.88 216.22-17.5 215.72-17.5L215.72-17.5Q214.97-17.5 214.57-17.9L214.57-17.9 212.97-18.15 212.72-18.15 212.47-17.9 212.47-17.75Q212.57-16.9 212.57-13.8L212.57-13.8Q212.57-11.85 212.52-10.25L212.52-10.25 212.47-6.7Q212.47-4.75 212.62-2.7L212.62-2.7Q212.67-1.55 213.12-1.18 213.57-0.8 214.77-0.8L214.77-0.8 215.67-0.85Q216.12-0.9 216.67-0.9L216.67-0.9Q218.12-0.9 218.12-0.25L218.12-0.25Q218.12 0.65 215.92 0.65L215.92 0.65 211.82 0.65ZM224.22 0.6Q223.67 0.5 223.17 0.18 222.67-0.15 222.62-0.6L222.62-0.6 222.87-1Q223.07-1 223.77-0.85L223.77-0.85Q224.32-0.65 224.67-0.65L224.67-0.65Q225.77-0.65 226.62-1.53 227.47-2.4 227.92-3.8L227.92-3.8Q228.62-6.4 228.62-8.7L228.62-8.7Q228.62-12.15 226.52-16.1L226.52-16.1Q225.22-18.4 224.52-19.75 223.82-21.1 223.27-22.85L223.27-22.85Q222.62-24.9 222.62-26.8L222.62-26.8Q222.62-28.6 223.52-31.05L223.52-31.05Q223.97-32.2 224.79-32.93 225.62-33.65 226.57-33.65L226.57-33.65Q227.22-33.65 227.84-33.2 228.47-32.75 228.47-32.25L228.47-32.25Q228.47-31.85 227.82-31.85L227.82-31.85Q227.62-31.85 227.32-32L227.32-32Q227.02-32.15 226.77-32.15L226.77-32.15Q226.02-32.15 225.42-31.55 224.82-30.95 224.52-30L224.52-30Q223.92-28.15 223.92-26.6L223.92-26.6Q223.92-25.65 224.17-24.65L224.17-24.65Q224.22-24.35 224.27-24.15 224.32-23.95 224.32-23.85L224.32-23.85 224.62-22.85 224.87-21.95 225.27-21.05Q225.42-20.7 225.59-20.43 225.77-20.15 225.92-19.9L225.92-19.9 226.52-18.85Q226.72-18.55 227.37-17.43 228.02-16.3 228.57-15.05L228.57-15.05Q229.07-14 229.32-13.08 229.57-12.15 229.77-10.85L229.77-10.85Q229.92-9.6 229.92-8.1L229.92-8.1Q229.92-5.7 229.27-3.6L229.27-3.6Q228.37-1.1 226.67-0.1L226.67-0.1Q225.72 0.5 224.47 0.5L224.47 0.5 224.22 0.6ZM228.17-32L228.22-32Q228.22-32.05 228.17-32.05L228.17-32.05 228.17-32ZM239.81-0.3L239.26-0.7 239.21-2.55Q239.16-3.35 239.16-4.35L239.16-4.35Q239.16-4.85 239.21-5.2L239.21-5.2 239.26-6.1Q239.26-6.6 239.06-7.3L239.06-7.3Q239.06-10.65 238.56-19.75L238.56-19.75Q238.06-28.55 238.01-31.7L238.01-31.7Q234.91-31.7 233.86-31.85L233.86-31.85Q232.86-32.1 232.86-32.65L232.86-32.65Q233.11-33.2 233.81-33.2L233.81-33.2Q235.31-33.2 238.16-33L238.16-33Q240.76-32.75 242.51-32.75L242.51-32.75 243.56-32.75 244.61-32.8Q245.51-32.8 245.51-32.15L245.51-32.15Q245.51-31.85 245.19-31.68 244.86-31.5 244.41-31.5L244.41-31.5Q243.41-31.5 242.31-31.6L242.31-31.6 240.16-31.7Q239.96-31.7 239.96-31.55L239.96-31.55Q239.91-31.4 239.91-30.6L239.91-30.6Q239.91-25.75 240.51-15.9L240.51-15.9Q241.06-5.7 241.06-1.25L241.06-1.25Q241.06-0.9 240.64-0.6 240.21-0.3 239.81-0.3L239.81-0.3ZM253.51 0Q252.36 0 252.16-0.5L252.16-0.5Q251.91-0.5 251.76-0.45L251.76-0.45 251.36-0.45Q250.26-0.45 249.96-0.95L249.96-0.95Q249.96-1.3 250.36-1.55L250.36-1.55 250.61-1.8 252.06-1.8 252.26-2 252.36-2.45 252.41-3.05Q252.41-6.1 252.26-8.5L252.26-8.5 252.16-10.35 252.06-14Q252.06-15.95 252.21-19.85L252.21-19.85 252.31-25.65Q252.31-29.45 252.06-31.45L252.06-31.45Q251.61-31.6 250.56-31.6L250.56-31.6 250.01-31.55Q249.71-31.5 249.36-31.5L249.36-31.5Q248.41-31.5 248.41-32.35L248.41-32.35Q248.41-32.55 248.86-32.75 249.31-32.95 249.61-32.95L249.61-32.95Q251.51-32.95 253.41-32.75L253.41-32.75Q254.56-32.7 255.71-32.3L255.71-32.3Q256.61-32 256.61-31.45L256.61-31.45Q256.61-31.35 256.46-31.05L256.46-31.05 255.31-30.95Q254.96-31.25 253.86-31.25L253.86-31.25 253.61-31.1Q253.76-30.65 253.76-28.45L253.76-28.45Q253.76-25.15 253.71-22.5L253.71-22.5 253.61-16.55Q253.61-14.3 253.81-11.1L253.81-11.1Q253.96-7.45 253.96-5.6L253.96-5.6 253.96-4.95Q253.91-4.6 253.91-4.05L253.91-4.05Q253.91-2.9 254.06-2.65L254.06-2.65 254.01-2.55Q254.01-2.05 255.11-2.05L255.11-2.05Q255.56-2.05 255.86-2.1L255.86-2.1 256.61-2.1Q258.06-2.1 258.06-1.4L258.06-1.4Q258.06-0.95 257.76-0.68 257.46-0.4 256.96-0.4L256.96-0.4Q256.51-0.4 256.16-0.5L256.16-0.5Q255.76-0.55 255.31-0.55L255.31-0.55Q255.01-0.55 254.41-0.3L254.41-0.3Q253.81 0 253.51 0L253.51 0ZM267.86 0.95Q262.01 0.95 262.01-17.45L262.01-17.45 262.01-19.2Q262.01-33.15 265.61-33.15L265.61-33.15Q265.86-33.15 266.31-33L266.31-33Q267.91-32.45 269.46-32.3L269.46-32.3Q270.41-32.1 271.36-30.35L271.36-30.35Q272.41-28.55 272.93-25.6 273.46-22.65 273.46-19.55L273.46-19.55 273.36-19.3Q273.36-17.65 273.41-16.35L273.41-16.35 273.46-13.35Q273.46-10.8 273.26-8.75L273.26-8.75Q272.96-5.65 272.26-3.4L272.26-3.4Q271.81-2.05 271.23-1.15 270.66-0.25 269.81 0.35L269.81 0.35Q269.01 0.95 267.86 0.95L267.86 0.95ZM267.66-0.5Q269.61-0.5 270.56-3.25L270.56-3.25Q271.51-6.05 271.71-8.95L271.71-8.95Q271.91-11.95 271.91-13.75L271.91-13.75Q271.91-15.75 271.61-19.65L271.61-19.65Q271.36-24 271.36-25.55L271.36-25.55 271.16-25.95 271.26-26.2Q271.26-28.4 270.03-30 268.81-31.6 267.06-31.6L267.06-31.6Q264.76-31.6 264.31-29.4L264.31-29.4Q264.21-28.65 264.11-27.25L264.11-27.25Q264.11-23.55 263.81-22.2L263.81-22.2Q263.81-21.45 263.66-19.85L263.66-19.85 263.56-17.5Q263.56-16.4 263.61-15.55L263.61-15.55 263.66-13.55Q263.66-11.2 264.06-8.15L264.06-8.15Q264.36-5.9 264.76-4.35 265.16-2.8 265.91-1.7L265.91-1.7Q266.66-0.5 267.66-0.5L267.66-0.5ZM292.71 0.2Q292.31 0.2 292.13-0.1 291.96-0.4 291.81-1L291.81-1Q291.76-1.4 291.61-1.7L291.61-1.7 291.66-1.85Q291.26-4.2 289.96-7.6L289.96-7.6 289.06-10.2Q288.96-10.3 288.11-12.75L288.11-12.75 287.71-13.95Q283.21-27.85 282.06-29L282.06-29Q281.66-27.65 281.66-25.5L281.66-25.5Q281.66-24.35 281.71-23.5L281.71-23.5 281.76-21.55 281.71-20.35Q281.66-19.8 281.66-19.15L281.66-19.15Q281.66-18.05 281.76-17.25L281.76-17.25Q281.86-15.65 281.86-15.65L281.86-15.65 281.71-15.65Q281.71-7.3 282.06-6.45L282.06-6.45 282.06-1.95Q282.26-1.55 282.26-0.9L282.26-0.9Q282.26-0.5 281.98-0.2 281.71 0.1 281.31 0.1L281.31 0.1Q280.26 0.1 280.26-2.6L280.26-2.6 280.36-4.2Q280.46-4.95 280.46-5.85L280.46-5.85Q280.46-8.25 280.31-13.05L280.31-13.05Q280.16-17.85 280.16-20.25L280.16-20.25Q280.16-21.7 280.31-24.7L280.31-24.7Q280.46-27.65 280.46-29.1L280.46-29.1 280.46-29.75Q280.46-32.2 281.36-32.95L281.36-32.95 281.51-32.8 282.01-32.9Q282.21-32.85 282.46-32.6L282.46-32.6Q282.66-32.4 282.66-32.15L282.66-32.15 282.76-31.85Q282.76-31.75 282.78-31.68 282.81-31.6 282.81-31.6L282.81-31.6Q283.61-28.05 286.41-21.65L286.41-21.65Q289.26-14.9 289.96-12.7L289.96-12.7Q290.46-10.95 290.76-9.6L290.76-9.6Q291.71-5.35 293.01-3.05L293.01-3.05 293.11-3.2Q294.26-14.3 294.26-30.45L294.26-30.45 294.21-31.05Q294.16-31.3 294.16-31.7L294.16-31.7Q294.16-32.75 294.86-32.75L294.86-32.75Q295.31-32.75 295.63-32.3 295.96-31.85 295.96-31.3L295.96-31.3 295.96-27.95 295.71-27.55Q295.71-22.8 295.16-11.95 294.61-1.1 294.11-0.15L294.11-0.15 293.26 0.05 293.26 0.1 293.21 0.05 292.71 0.2ZM322.3 1.65Q321.75 1.65 321.6 1.05L321.6 1.05Q321.45 0.45 321.45-0.1L321.45-0.1 321.45-0.55Q321.25-2.55 320.9-4.3L320.9-4.3Q320.45-6.75 320.3-8.1 320.15-9.45 319.85-13L319.85-13Q319.4-18.6 319-21.5L319-21.5Q318.55-25.2 318.05-25.7L318.05-25.7 317.75-23Q317.5-20.6 317.5-19.6L317.5-19.6Q317.5-17.5 317.3-15.4 317.1-13.3 316.6-10.05L316.6-10.05 316-5.9Q315.95-5.8 315.93-5.53 315.9-5.25 315.85-4.85L315.85-4.85Q315.75-3.45 315.3-1.15L315.3-1.15Q315.15-0.15 314.85 0.45L314.85 0.45Q314.65 1.05 314.25 1.05L314.25 1.05Q313.55 1.05 313.1-1.2L313.1-1.2Q312.75-3.2 312.45-7.55L312.45-7.55Q312.3-10.3 312.2-11.65 312.1-13 311.8-14.85L311.8-14.85 311.6-16.4Q311.2-19.1 311.1-20.25 311-21.4 310.9-23.6L310.9-23.6Q310.85-25.25 310.75-26.58 310.65-27.9 310.4-29.35L310.4-29.35Q310.2-30.6 309.75-32L309.75-32Q309.95-32.4 310.55-32.4L310.55-32.4Q311.15-32.4 311.4-31.25L311.4-31.25Q311.45-31.05 311.55-29.25L311.55-29.25 311.55-28.6Q311.6-27.55 312.7-18.7L312.7-18.7Q313.7-10.7 313.85-5.65L313.85-5.65Q314.05-5.2 314.1-4.3L314.1-4.3Q314.2-3.3 314.35-2.95L314.35-2.95 314.4-2.95 315.2-8.2Q315.2-8.9 315.5-10.6L315.5-10.6Q315.85-13.25 316.1-15.8L316.1-15.8Q316.35-18.85 316.4-21.1L316.4-21.1Q316.55-24.7 316.75-25.9L316.75-25.9 316.9-27.15Q317.1-29.05 317.1-29L317.1-29 318-29.4Q318.35-29.4 318.6-29.2 318.85-29 318.85-28.7L318.85-28.7Q318.85-28.55 318.7-28.3L318.7-28.3Q320.7-21.55 321.4-12.15L321.4-12.15 321.5-10.3Q321.55-8.05 321.85-6.45L321.85-6.45Q322.15-5.15 322.4-4.55L322.4-4.55Q323-6.25 323.4-12.85 323.8-19.45 323.8-24.3L323.8-24.3Q323.8-25.2 324.15-28.15L324.15-28.15Q324.5-30.6 324.5-32.05L324.5-32.05Q324.5-32.5 324.3-32.9L324.3-32.9Q324.3-33.7 325.3-33.7L325.3-33.7Q325.7-33.7 325.83-33.6 325.95-33.5 325.95-33.1L325.95-33.1Q325.95-31.7 325.7-30.95L325.7-30.95 325.8-30.65Q325.4-28.5 325.4-25.95L325.4-25.95Q325.4-25.5 325.5-25.4L325.5-25.4 325.2-24.4 325.35-24.05Q325.2-23.75 325.2-23.45L325.2-23.45 325.35-22.5 325.2-22.3Q325.2-20.55 324.8-14.5 324.4-8.45 324.2-6.8L324.2-6.8 323.9-5.45Q323.6-4.4 323.6-3.8L323.6-3.8Q323.6-2.2 323.45-0.75L323.45-0.75Q323.4 0.25 323.05 1L323.05 1Q322.7 1.65 322.3 1.65L322.3 1.65ZM322.4-4.3L322.45-4.3 322.4-4.35 322.4-4.3ZM341 0.55Q341 0.05 339.5 0.05L339.5 0.05Q339.25-9.2 339.25-13.35L339.25-13.35 339.1-13.55 339.3-14Q339.3-14.9 339.1-15.85L339.1-15.85 338.35-16.05Q337.9-15.9 337.35-15.9L337.35-15.9Q336.95-15.9 335.7-16.15L335.7-16.15Q334.85-16.4 334.15-16.4L334.15-16.4 333.6-16.2Q333.6-14.45 333.55-13.05L333.55-13.05Q333.5-11.65 333.5-9.9L333.5-9.9 333.6-9.7Q333.6-8.3 333.75-5.5L333.75-5.5Q333.9-2.75 333.9-1.35L333.9-1.35Q333.9-0.8 333.7-0.43 333.5-0.05 333.1-0.05L333.1-0.05Q332-0.05 332-3.05L332-3.05Q332-5.6 332.05-7.65L332.05-7.65 332.1-12.2Q332.1-16.75 331.95-17.1L331.95-17.1Q332.2-17.6 332.2-20.4L332.2-20.4Q332.2-22.8 332-26.25L332-26.25 331.9-28.2 331.8-32.1Q331.8-32.45 332.05-32.75 332.3-33.05 332.65-33.05L332.65-33.05Q333.65-33.05 333.65-30.15L333.65-30.15Q333.65-26.75 333.6-24L333.6-24Q333.5-21.25 333.5-17.95L333.5-17.95Q333.5-17.35 337.3-17.35L337.3-17.35 337.5-17.35Q338.45-17.35 338.87-17.73 339.3-18.1 339.3-19L339.3-19Q339.3-21.65 338.95-25.9L338.95-25.9Q338.65-30.5 338.65-32.8L338.65-32.8Q338.65-33.1 338.9-33.33 339.15-33.55 339.5-33.55L339.5-33.55 339.95-33.4Q340.3-33.35 340.4-33.25L340.4-33.25Q340.4-29.35 340.7-21.6L340.7-21.6Q341-13.8 341-9.9L341-9.9Q341-4 341.35 0L341.35 0 341 0.55ZM337.85-17.95L337.85-18.05 337.95-17.95 337.85-17.95ZM358.2 0.45Q357.45 0.45 357.25 0.28 357.05 0.1 356.95-0.65L356.95-0.65Q356.5-4.3 356.4-5.2L356.4-5.2 356.15-7.2Q355.05-7.45 353.65-7.45L353.65-7.45 351.85-7.55Q350.65-7.7 350.1-7.7L350.1-7.7Q349.8-7.7 349.75-7.45L349.75-7.45Q349.75-7.3 349.7-7.3L349.7-7.3 349.6-6.3Q349.55-5.4 349.05-2.7L349.05-2.7Q348.8-1.35 348.45-0.6L348.45-0.6Q348.05 0.25 347.7 0.25L347.7 0.25Q347.4 0.25 347.05-0.03 346.7-0.3 346.7-0.6L346.7-0.6 346.75-0.75 346.8-0.9Q347.7-4.45 348.3-7.95L348.3-7.95 348.9-11.05 349.5-14.85Q349.5-14.85 350.05-18.15L350.05-18.15Q350.3-19.5 350.95-22.5L350.95-22.5Q351.65-25.9 351.8-27.15L351.8-27.15Q351.85-27.3 352-29L352-29Q352.2-30.9 352.35-31.8L352.35-31.8Q352.5-33.1 352.65-33.3L352.65-33.3 353-33.3Q353.15-33.25 353.35-33.25L353.35-33.25Q353.95-33.25 354.25-33.55L354.25-33.55Q354.6-33.55 354.87-33.33 355.15-33.1 355.15-32.8L355.15-32.8Q355.15-30.4 355.5-27.3L355.5-27.3Q355.7-25.7 355.8-24.65L355.8-24.65Q356.35-18.2 358.6-0.45L358.6-0.45 358.6-0.3Q358.6 0.2 358.2 0.45L358.2 0.45ZM355.4-8.55L355.9-8.55Q355.4-15.75 354-29.8L354-29.8 351.3-16.45Q350.15-10.7 350.15-9.2L350.15-9.2Q350.15-8.95 352.05-8.75 353.95-8.55 355.4-8.55L355.4-8.55ZM367.84-0.3L367.29-0.7 367.24-2.55Q367.19-3.35 367.19-4.35L367.19-4.35Q367.19-4.85 367.24-5.2L367.24-5.2 367.29-6.1Q367.29-6.6 367.09-7.3L367.09-7.3Q367.09-10.65 366.59-19.75L366.59-19.75Q366.09-28.55 366.04-31.7L366.04-31.7Q362.94-31.7 361.89-31.85L361.89-31.85Q360.89-32.1 360.89-32.65L360.89-32.65Q361.14-33.2 361.84-33.2L361.84-33.2Q363.34-33.2 366.19-33L366.19-33Q368.79-32.75 370.54-32.75L370.54-32.75 371.59-32.75 372.64-32.8Q373.54-32.8 373.54-32.15L373.54-32.15Q373.54-31.85 373.22-31.68 372.89-31.5 372.44-31.5L372.44-31.5Q371.44-31.5 370.34-31.6L370.34-31.6 368.19-31.7Q367.99-31.7 367.99-31.55L367.99-31.55Q367.94-31.4 367.94-30.6L367.94-30.6Q367.94-25.75 368.54-15.9L368.54-15.9Q369.09-5.7 369.09-1.25L369.09-1.25Q369.09-0.9 368.67-0.6 368.24-0.3 367.84-0.3L367.84-0.3ZM390.09 0Q388.94 0 388.74-0.5L388.74-0.5Q388.49-0.5 388.34-0.45L388.34-0.45 387.94-0.45Q386.84-0.45 386.54-0.95L386.54-0.95Q386.54-1.3 386.94-1.55L386.94-1.55 387.19-1.8 388.64-1.8 388.84-2 388.94-2.45 388.99-3.05Q388.99-6.1 388.84-8.5L388.84-8.5 388.74-10.35 388.64-14Q388.64-15.95 388.79-19.85L388.79-19.85 388.89-25.65Q388.89-29.45 388.64-31.45L388.64-31.45Q388.19-31.6 387.14-31.6L387.14-31.6 386.59-31.55Q386.29-31.5 385.94-31.5L385.94-31.5Q384.99-31.5 384.99-32.35L384.99-32.35Q384.99-32.55 385.44-32.75 385.89-32.95 386.19-32.95L386.19-32.95Q388.09-32.95 389.99-32.75L389.99-32.75Q391.14-32.7 392.29-32.3L392.29-32.3Q393.19-32 393.19-31.45L393.19-31.45Q393.19-31.35 393.04-31.05L393.04-31.05 391.89-30.95Q391.54-31.25 390.44-31.25L390.44-31.25 390.19-31.1Q390.34-30.65 390.34-28.45L390.34-28.45Q390.34-25.15 390.29-22.5L390.29-22.5 390.19-16.55Q390.19-14.3 390.39-11.1L390.39-11.1Q390.54-7.45 390.54-5.6L390.54-5.6 390.54-4.95Q390.49-4.6 390.49-4.05L390.49-4.05Q390.49-2.9 390.64-2.65L390.64-2.65 390.59-2.55Q390.59-2.05 391.69-2.05L391.69-2.05Q392.14-2.05 392.44-2.1L392.44-2.1 393.19-2.1Q394.64-2.1 394.64-1.4L394.64-1.4Q394.64-0.95 394.34-0.68 394.04-0.4 393.54-0.4L393.54-0.4Q393.09-0.4 392.74-0.5L392.74-0.5Q392.34-0.55 391.89-0.55L391.89-0.55Q391.59-0.55 390.99-0.3L390.99-0.3Q390.39 0 390.09 0L390.09 0ZM403.09-0.3L402.54-0.7 402.49-2.55Q402.44-3.35 402.44-4.35L402.44-4.35Q402.44-4.85 402.49-5.2L402.49-5.2 402.54-6.1Q402.54-6.6 402.34-7.3L402.34-7.3Q402.34-10.65 401.84-19.75L401.84-19.75Q401.34-28.55 401.29-31.7L401.29-31.7Q398.19-31.7 397.14-31.85L397.14-31.85Q396.14-32.1 396.14-32.65L396.14-32.65Q396.39-33.2 397.09-33.2L397.09-33.2Q398.59-33.2 401.44-33L401.44-33Q404.04-32.75 405.79-32.75L405.79-32.75 406.84-32.75 407.89-32.8Q408.79-32.8 408.79-32.15L408.79-32.15Q408.79-31.85 408.46-31.68 408.14-31.5 407.69-31.5L407.69-31.5Q406.69-31.5 405.59-31.6L405.59-31.6 403.44-31.7Q403.24-31.7 403.24-31.55L403.24-31.55Q403.19-31.4 403.19-30.6L403.19-30.6Q403.19-25.75 403.79-15.9L403.79-15.9Q404.34-5.7 404.34-1.25L404.34-1.25Q404.34-0.9 403.91-0.6 403.49-0.3 403.09-0.3L403.09-0.3ZM425.33 0Q424.18 0 423.98-0.5L423.98-0.5Q423.73-0.5 423.58-0.45L423.58-0.45 423.18-0.45Q422.08-0.45 421.78-0.95L421.78-0.95Q421.78-1.3 422.18-1.55L422.18-1.55 422.43-1.8 423.88-1.8 424.08-2 424.18-2.45 424.23-3.05Q424.23-6.1 424.08-8.5L424.08-8.5 423.98-10.35 423.88-14Q423.88-15.95 424.03-19.85L424.03-19.85 424.13-25.65Q424.13-29.45 423.88-31.45L423.88-31.45Q423.43-31.6 422.38-31.6L422.38-31.6 421.83-31.55Q421.53-31.5 421.18-31.5L421.18-31.5Q420.23-31.5 420.23-32.35L420.23-32.35Q420.23-32.55 420.68-32.75 421.13-32.95 421.43-32.95L421.43-32.95Q423.33-32.95 425.23-32.75L425.23-32.75Q426.38-32.7 427.53-32.3L427.53-32.3Q428.43-32 428.43-31.45L428.43-31.45Q428.43-31.35 428.28-31.05L428.28-31.05 427.13-30.95Q426.78-31.25 425.68-31.25L425.68-31.25 425.43-31.1Q425.58-30.65 425.58-28.45L425.58-28.45Q425.58-25.15 425.53-22.5L425.53-22.5 425.43-16.55Q425.43-14.3 425.63-11.1L425.63-11.1Q425.78-7.45 425.78-5.6L425.78-5.6 425.78-4.95Q425.73-4.6 425.73-4.05L425.73-4.05Q425.73-2.9 425.88-2.65L425.88-2.65 425.83-2.55Q425.83-2.05 426.93-2.05L426.93-2.05Q427.38-2.05 427.68-2.1L427.68-2.1 428.43-2.1Q429.88-2.1 429.88-1.4L429.88-1.4Q429.88-0.95 429.58-0.68 429.28-0.4 428.78-0.4L428.78-0.4Q428.33-0.4 427.98-0.5L427.98-0.5Q427.58-0.55 427.13-0.55L427.13-0.55Q426.83-0.55 426.23-0.3L426.23-0.3Q425.63 0 425.33 0L425.33 0ZM435.03 0.6Q434.48 0.5 433.98 0.18 433.48-0.15 433.43-0.6L433.43-0.6 433.68-1Q433.88-1 434.58-0.85L434.58-0.85Q435.13-0.65 435.48-0.65L435.48-0.65Q436.58-0.65 437.43-1.53 438.28-2.4 438.73-3.8L438.73-3.8Q439.43-6.4 439.43-8.7L439.43-8.7Q439.43-12.15 437.33-16.1L437.33-16.1Q436.03-18.4 435.33-19.75 434.63-21.1 434.08-22.85L434.08-22.85Q433.43-24.9 433.43-26.8L433.43-26.8Q433.43-28.6 434.33-31.05L434.33-31.05Q434.78-32.2 435.6-32.93 436.43-33.65 437.38-33.65L437.38-33.65Q438.03-33.65 438.65-33.2 439.28-32.75 439.28-32.25L439.28-32.25Q439.28-31.85 438.63-31.85L438.63-31.85Q438.43-31.85 438.13-32L438.13-32Q437.83-32.15 437.58-32.15L437.58-32.15Q436.83-32.15 436.23-31.55 435.63-30.95 435.33-30L435.33-30Q434.73-28.15 434.73-26.6L434.73-26.6Q434.73-25.65 434.98-24.65L434.98-24.65Q435.03-24.35 435.08-24.15 435.13-23.95 435.13-23.85L435.13-23.85 435.43-22.85 435.68-21.95 436.08-21.05Q436.23-20.7 436.4-20.43 436.58-20.15 436.73-19.9L436.73-19.9 437.33-18.85Q437.53-18.55 438.18-17.43 438.83-16.3 439.38-15.05L439.38-15.05Q439.88-14 440.13-13.08 440.38-12.15 440.58-10.85L440.58-10.85Q440.73-9.6 440.73-8.1L440.73-8.1Q440.73-5.7 440.08-3.6L440.08-3.6Q439.18-1.1 437.48-0.1L437.48-0.1Q436.53 0.5 435.28 0.5L435.28 0.5 435.03 0.6ZM438.98-32L439.03-32Q439.03-32.05 438.98-32.05L438.98-32.05 438.98-32ZM458.62 0.75Q458.47 0.75 458.22 0.55 457.97 0.35 457.92 0.2L457.92 0.2Q458.37-1 458.37-8.55L458.37-8.55Q458.37-10 458.22-12.7L458.22-12.7 457.97-16.25 457.67-16.9 457.82-17.5Q457.52-18.2 456.92-19.85 456.32-21.5 455.72-23.2L455.72-23.2Q453.92-27.95 453.37-30.05L453.37-30.05Q453.07-31.05 452.92-31.9L452.92-31.9 453.62-32.45Q454.12-32.35 455.07-29.25L455.07-29.25Q455.82-27.05 456.42-24.9L456.42-24.9 457.02-23Q457.92-19.9 458.32-19.8L458.32-19.8 458.52-20.7 458.42-20.95Q458.82-21.45 459.42-24.5L459.42-24.5Q460.07-28 460.67-30.4L460.67-30.4Q461.32-33.2 461.97-33.2L461.97-33.2Q462.22-33.2 462.42-33.05 462.62-32.9 462.62-32.7L462.62-32.7Q462.62-31.95 461.12-26.8L461.12-26.8Q460.37-24.35 459.87-22.2L459.87-22.2Q459.27-19.65 459.27-17.65L459.27-17.65Q459.52-17.15 459.52-16.8L459.52-16.8Q459.52-16.55 459.37-16.1L459.37-16.1Q459.22-15.65 459.22-15.35L459.22-15.35Q459.22-15.1 459.42-13.1L459.42-13.1Q459.62-11.75 459.62-10.8L459.62-10.8Q459.62-8.6 459.67-6.85L459.67-6.85 459.67-2.85 459.67-2.65Q459.67 0.75 458.62 0.75L458.62 0.75ZM473.87 0.95Q468.02 0.95 468.02-17.45L468.02-17.45 468.02-19.2Q468.02-33.15 471.62-33.15L471.62-33.15Q471.87-33.15 472.32-33L472.32-33Q473.92-32.45 475.47-32.3L475.47-32.3Q476.42-32.1 477.37-30.35L477.37-30.35Q478.42-28.55 478.95-25.6 479.47-22.65 479.47-19.55L479.47-19.55 479.37-19.3Q479.37-17.65 479.42-16.35L479.42-16.35 479.47-13.35Q479.47-10.8 479.27-8.75L479.27-8.75Q478.97-5.65 478.27-3.4L478.27-3.4Q477.82-2.05 477.25-1.15 476.67-0.25 475.82 0.35L475.82 0.35Q475.02 0.95 473.87 0.95L473.87 0.95ZM473.67-0.5Q475.62-0.5 476.57-3.25L476.57-3.25Q477.52-6.05 477.72-8.95L477.72-8.95Q477.92-11.95 477.92-13.75L477.92-13.75Q477.92-15.75 477.62-19.65L477.62-19.65Q477.37-24 477.37-25.55L477.37-25.55 477.17-25.95 477.27-26.2Q477.27-28.4 476.05-30 474.82-31.6 473.07-31.6L473.07-31.6Q470.77-31.6 470.32-29.4L470.32-29.4Q470.22-28.65 470.12-27.25L470.12-27.25Q470.12-23.55 469.82-22.2L469.82-22.2Q469.82-21.45 469.67-19.85L469.67-19.85 469.57-17.5Q469.57-16.4 469.62-15.55L469.62-15.55 469.67-13.55Q469.67-11.2 470.07-8.15L470.07-8.15Q470.37-5.9 470.77-4.35 471.17-2.8 471.92-1.7L471.92-1.7Q472.67-0.5 473.67-0.5L473.67-0.5ZM491.22 0.75Q490.42 0.75 489.49 0.23 488.57-0.3 487.97-1L487.97-1Q487.27-1.9 486.87-6.05 486.47-10.2 486.37-15.55L486.37-15.55Q486.37-16.75 486.32-17.35L486.32-17.35Q486.22-29.9 485.92-32.2L485.92-32.2 486.22-32.9Q487.37-32.75 487.37-30.15L487.37-30.15 487.52-16.9Q487.52-15.5 487.77-11.6L487.77-11.6Q488.07-8.1 488.07-6.3L488.07-6.3Q488.07-0.6 491.82-0.6L491.82-0.6Q494.12-0.6 494.77-11.1L494.77-11.1 494.82-12.1Q495.17-25.85 495.17-32.45L495.17-32.45 495.12-32.9Q495.07-33.1 495.07-33.35L495.07-33.35Q495.07-33.9 495.92-33.9L495.92-33.9Q496.52-33.9 496.67-33.6L496.67-33.6Q496.77-33.1 496.77-31.85L496.77-31.85Q496.77-28.05 496.47-26.75L496.47-26.75 496.52-26.45Q496.52-25.8 496.37-24.45L496.37-24.45 496.27-22.45 496.27-21.95Q496.32-21.75 496.32-21.45L496.32-21.45Q496.22-20.25 496.22-19.15L496.22-19.15Q496.17-18.8 496.17-18.05L496.17-18.05Q496.07-13.3 495.97-9.8L495.97-9.8Q495.82-5.45 494.77-2.45L494.77-2.45Q493.67 0.75 491.22 0.75L491.22 0.75ZM522.66 0.45Q521.91 0.45 521.71 0.28 521.51 0.1 521.41-0.65L521.41-0.65Q520.96-4.3 520.86-5.2L520.86-5.2 520.61-7.2Q519.51-7.45 518.11-7.45L518.11-7.45 516.31-7.55Q515.11-7.7 514.56-7.7L514.56-7.7Q514.26-7.7 514.21-7.45L514.21-7.45Q514.21-7.3 514.16-7.3L514.16-7.3 514.06-6.3Q514.01-5.4 513.51-2.7L513.51-2.7Q513.26-1.35 512.91-0.6L512.91-0.6Q512.51 0.25 512.16 0.25L512.16 0.25Q511.86 0.25 511.51-0.03 511.16-0.3 511.16-0.6L511.16-0.6 511.21-0.75 511.26-0.9Q512.16-4.45 512.76-7.95L512.76-7.95 513.36-11.05 513.96-14.85Q513.96-14.85 514.51-18.15L514.51-18.15Q514.76-19.5 515.41-22.5L515.41-22.5Q516.11-25.9 516.26-27.15L516.26-27.15Q516.31-27.3 516.46-29L516.46-29Q516.66-30.9 516.81-31.8L516.81-31.8Q516.96-33.1 517.11-33.3L517.11-33.3 517.46-33.3Q517.61-33.25 517.81-33.25L517.81-33.25Q518.41-33.25 518.71-33.55L518.71-33.55Q519.06-33.55 519.34-33.33 519.61-33.1 519.61-32.8L519.61-32.8Q519.61-30.4 519.96-27.3L519.96-27.3Q520.16-25.7 520.26-24.65L520.26-24.65Q520.81-18.2 523.06-0.45L523.06-0.45 523.06-0.3Q523.06 0.2 522.66 0.45L522.66 0.45ZM519.86-8.55L520.36-8.55Q519.86-15.75 518.46-29.8L518.46-29.8 515.76-16.45Q514.61-10.7 514.61-9.2L514.61-9.2Q514.61-8.95 516.51-8.75 518.41-8.55 519.86-8.55L519.86-8.55ZM536.81 0.85L536.11 0.6Q535.51-0.05 534.81-2.85 534.11-5.65 533.51-9.15L533.51-9.15Q533.11-12 532.36-14.8L532.36-14.8Q531.76-17.3 531.21-17.3L531.21-17.3 531.06-17.3Q529.96-17.3 529.96-16.6L529.96-16.6Q529.96-13 530.36-5.65L530.36-5.65Q530.56-1.15 530.81-0.4L530.81-0.4 530.41 0.45 529.71 0.45 529.31 0.05Q528.51-23.05 528.51-31.45L528.51-31.45Q528.51-32 528.59-32.35 528.66-32.7 528.91-33L528.91-33Q529.11-33.35 529.61-33.35L529.61-33.35Q532.16-33.35 533.71-32.1 535.26-30.85 535.26-28.5L535.26-28.5 535.26-24.85Q535.26-23.9 534.64-22.3 534.01-20.7 533.26-19.35L533.26-19.35 532.61-18.1Q533.16-15.55 534.79-8.93 536.41-2.3 536.56-1.9L536.56-1.9Q536.61-1.85 536.69-1.65 536.76-1.45 537.01-1.05L537.01-1.05Q537.36-0.35 537.36 0.15L537.36 0.15Q537.36 0.85 536.81 0.85L536.81 0.85ZM530.21-18.55Q531.16-18.55 531.91-19.5 532.66-20.45 533.11-21.95L533.11-21.95Q533.91-25 533.91-26.8L533.91-26.8Q533.91-27.95 533.79-28.7 533.66-29.45 533.36-30.3L533.36-30.3Q532.76-32.05 530.51-32.05L530.51-32.05Q530.26-32.05 530.11-31.63 529.96-31.2 529.96-30.75L529.96-30.75Q529.96-27.4 530.06-24.7L530.06-24.7Q530.11-22 530.11-18.65L530.11-18.65 530.21-18.55ZM543.91 0.65Q543.01 0.65 542.91-0.4L542.91-0.4 542.91-1.05Q542.96-1.3 542.96-1.65L542.96-1.65 542.76-1.85Q543.16-2.9 543.16-3.9L543.16-3.9Q543.16-5.05 543.01-7.2L543.01-7.2 542.91-10.5Q542.91-13 543.06-18L543.06-18Q543.26-22.45 543.26-25.55L543.26-25.55 543.16-28.55Q543.06-29.9 543.06-31.55L543.06-31.55Q543.06-32.3 543.41-32.63 543.76-32.95 544.51-32.95L544.51-32.95Q545.01-32.95 545.31-32.65L545.31-32.65Q545.41-32.6 546.76-32.45L546.76-32.45Q548.01-32.3 548.91-32L548.91-32Q549.86-31.7 549.86-31.25L549.86-31.25Q549.86-30.75 548.91-30.25L548.91-30.25Q546.06-31.2 544.86-31.2L544.86-31.2 544.61-30.9Q544.66-30.45 544.66-28.75L544.66-28.75Q544.66-26.6 544.56-24.9L544.56-24.9Q544.51-23.15 544.51-21L544.51-21Q544.51-19.6 545.21-19.6L545.21-19.6 546.01-19.65Q546.41-19.7 546.86-19.7L546.86-19.7Q548.81-19.7 548.81-18.8L548.81-18.8Q548.81-18.25 548.56-17.88 548.31-17.5 547.81-17.5L547.81-17.5Q547.06-17.5 546.66-17.9L546.66-17.9 545.06-18.15 544.81-18.15 544.56-17.9 544.56-17.75Q544.66-16.9 544.66-13.8L544.66-13.8Q544.66-11.85 544.61-10.25L544.61-10.25 544.56-6.7Q544.56-4.75 544.71-2.7L544.71-2.7Q544.76-1.55 545.21-1.18 545.66-0.8 546.86-0.8L546.86-0.8 547.76-0.85Q548.21-0.9 548.76-0.9L548.76-0.9Q550.21-0.9 550.21-0.25L550.21-0.25Q550.21 0.65 548.01 0.65L548.01 0.65 543.91 0.65ZM564.85 0.6Q564.3 0.5 563.8 0.18 563.3-0.15 563.25-0.6L563.25-0.6 563.5-1Q563.7-1 564.4-0.85L564.4-0.85Q564.95-0.65 565.3-0.65L565.3-0.65Q566.4-0.65 567.25-1.53 568.1-2.4 568.55-3.8L568.55-3.8Q569.25-6.4 569.25-8.7L569.25-8.7Q569.25-12.15 567.15-16.1L567.15-16.1Q565.85-18.4 565.15-19.75 564.45-21.1 563.9-22.85L563.9-22.85Q563.25-24.9 563.25-26.8L563.25-26.8Q563.25-28.6 564.15-31.05L564.15-31.05Q564.6-32.2 565.43-32.93 566.25-33.65 567.2-33.65L567.2-33.65Q567.85-33.65 568.48-33.2 569.1-32.75 569.1-32.25L569.1-32.25Q569.1-31.85 568.45-31.85L568.45-31.85Q568.25-31.85 567.95-32L567.95-32Q567.65-32.15 567.4-32.15L567.4-32.15Q566.65-32.15 566.05-31.55 565.45-30.95 565.15-30L565.15-30Q564.55-28.15 564.55-26.6L564.55-26.6Q564.55-25.65 564.8-24.65L564.8-24.65Q564.85-24.35 564.9-24.15 564.95-23.95 564.95-23.85L564.95-23.85 565.25-22.85 565.5-21.95 565.9-21.05Q566.05-20.7 566.23-20.43 566.4-20.15 566.55-19.9L566.55-19.9 567.15-18.85Q567.35-18.55 568-17.43 568.65-16.3 569.2-15.05L569.2-15.05Q569.7-14 569.95-13.08 570.2-12.15 570.4-10.85L570.4-10.85Q570.55-9.6 570.55-8.1L570.55-8.1Q570.55-5.7 569.9-3.6L569.9-3.6Q569-1.1 567.3-0.1L567.3-0.1Q566.35 0.5 565.1 0.5L565.1 0.5 564.85 0.6ZM568.8-32L568.85-32Q568.85-32.05 568.8-32.05L568.8-32.05 568.8-32ZM577.55 0.65Q576.65 0.65 576.55-0.4L576.55-0.4 576.55-1.05Q576.6-1.3 576.6-1.65L576.6-1.65 576.4-1.85Q576.8-2.9 576.8-3.9L576.8-3.9Q576.8-5.05 576.65-7.2L576.65-7.2 576.55-10.5Q576.55-13 576.7-18L576.7-18Q576.9-22.45 576.9-25.55L576.9-25.55 576.8-28.55Q576.7-29.9 576.7-31.55L576.7-31.55Q576.7-32.3 577.05-32.63 577.4-32.95 578.15-32.95L578.15-32.95Q578.65-32.95 578.95-32.65L578.95-32.65Q579.05-32.6 580.4-32.45L580.4-32.45Q581.65-32.3 582.55-32L582.55-32Q583.5-31.7 583.5-31.25L583.5-31.25Q583.5-30.75 582.55-30.25L582.55-30.25Q579.7-31.2 578.5-31.2L578.5-31.2 578.25-30.9Q578.3-30.45 578.3-28.75L578.3-28.75Q578.3-26.6 578.2-24.9L578.2-24.9Q578.15-23.15 578.15-21L578.15-21Q578.15-19.6 578.85-19.6L578.85-19.6 579.65-19.65Q580.05-19.7 580.5-19.7L580.5-19.7Q582.45-19.7 582.45-18.8L582.45-18.8Q582.45-18.25 582.2-17.88 581.95-17.5 581.45-17.5L581.45-17.5Q580.7-17.5 580.3-17.9L580.3-17.9 578.7-18.15 578.45-18.15 578.2-17.9 578.2-17.75Q578.3-16.9 578.3-13.8L578.3-13.8Q578.3-11.85 578.25-10.25L578.25-10.25 578.2-6.7Q578.2-4.75 578.35-2.7L578.35-2.7Q578.4-1.55 578.85-1.18 579.3-0.8 580.5-0.8L580.5-0.8 581.4-0.85Q581.85-0.9 582.4-0.9L582.4-0.9Q583.85-0.9 583.85-0.25L583.85-0.25Q583.85 0.65 581.65 0.65L581.65 0.65 577.55 0.65ZM590.35 0.65Q589.45 0.65 589.35-0.4L589.35-0.4 589.35-1.05Q589.4-1.3 589.4-1.65L589.4-1.65 589.2-1.85Q589.6-2.9 589.6-3.9L589.6-3.9Q589.6-5.05 589.45-7.2L589.45-7.2 589.35-10.5Q589.35-13 589.5-18L589.5-18Q589.7-22.45 589.7-25.55L589.7-25.55 589.6-28.55Q589.5-29.9 589.5-31.55L589.5-31.55Q589.5-32.3 589.85-32.63 590.2-32.95 590.95-32.95L590.95-32.95Q591.45-32.95 591.75-32.65L591.75-32.65Q591.85-32.6 593.2-32.45L593.2-32.45Q594.45-32.3 595.35-32L595.35-32Q596.3-31.7 596.3-31.25L596.3-31.25Q596.3-30.75 595.35-30.25L595.35-30.25Q592.5-31.2 591.3-31.2L591.3-31.2 591.05-30.9Q591.1-30.45 591.1-28.75L591.1-28.75Q591.1-26.6 591-24.9L591-24.9Q590.95-23.15 590.95-21L590.95-21Q590.95-19.6 591.65-19.6L591.65-19.6 592.45-19.65Q592.85-19.7 593.3-19.7L593.3-19.7Q595.25-19.7 595.25-18.8L595.25-18.8Q595.25-18.25 595-17.88 594.75-17.5 594.25-17.5L594.25-17.5Q593.5-17.5 593.1-17.9L593.1-17.9 591.5-18.15 591.25-18.15 591-17.9 591-17.75Q591.1-16.9 591.1-13.8L591.1-13.8Q591.1-11.85 591.05-10.25L591.05-10.25 591-6.7Q591-4.75 591.15-2.7L591.15-2.7Q591.2-1.55 591.65-1.18 592.1-0.8 593.3-0.8L593.3-0.8 594.2-0.85Q594.65-0.9 595.2-0.9L595.2-0.9Q596.65-0.9 596.65-0.25L596.65-0.25Q596.65 0.65 594.45 0.65L594.45 0.65 590.35 0.65ZM604.89 0Q603.74 0 603.54-0.5L603.54-0.5Q603.29-0.5 603.14-0.45L603.14-0.45 602.74-0.45Q601.64-0.45 601.34-0.95L601.34-0.95Q601.34-1.3 601.74-1.55L601.74-1.55 601.99-1.8 603.44-1.8 603.64-2 603.74-2.45 603.79-3.05Q603.79-6.1 603.64-8.5L603.64-8.5 603.54-10.35 603.44-14Q603.44-15.95 603.59-19.85L603.59-19.85 603.69-25.65Q603.69-29.45 603.44-31.45L603.44-31.45Q602.99-31.6 601.94-31.6L601.94-31.6 601.39-31.55Q601.09-31.5 600.74-31.5L600.74-31.5Q599.79-31.5 599.79-32.35L599.79-32.35Q599.79-32.55 600.24-32.75 600.69-32.95 600.99-32.95L600.99-32.95Q602.89-32.95 604.79-32.75L604.79-32.75Q605.94-32.7 607.09-32.3L607.09-32.3Q607.99-32 607.99-31.45L607.99-31.45Q607.99-31.35 607.84-31.05L607.84-31.05 606.69-30.95Q606.34-31.25 605.24-31.25L605.24-31.25 604.99-31.1Q605.14-30.65 605.14-28.45L605.14-28.45Q605.14-25.15 605.09-22.5L605.09-22.5 604.99-16.55Q604.99-14.3 605.19-11.1L605.19-11.1Q605.34-7.45 605.34-5.6L605.34-5.6 605.34-4.95Q605.29-4.6 605.29-4.05L605.29-4.05Q605.29-2.9 605.44-2.65L605.44-2.65 605.39-2.55Q605.39-2.05 606.49-2.05L606.49-2.05Q606.94-2.05 607.24-2.1L607.24-2.1 607.99-2.1Q609.44-2.1 609.44-1.4L609.44-1.4Q609.44-0.95 609.14-0.68 608.84-0.4 608.34-0.4L608.34-0.4Q607.89-0.4 607.54-0.5L607.54-0.5Q607.14-0.55 606.69-0.55L606.69-0.55Q606.39-0.55 605.79-0.3L605.79-0.3Q605.19 0 604.89 0L604.89 0ZM626.79 0.2Q626.39 0.2 626.22-0.1 626.04-0.4 625.89-1L625.89-1Q625.84-1.4 625.69-1.7L625.69-1.7 625.74-1.85Q625.34-4.2 624.04-7.6L624.04-7.6 623.14-10.2Q623.04-10.3 622.19-12.75L622.19-12.75 621.79-13.95Q617.29-27.85 616.14-29L616.14-29Q615.74-27.65 615.74-25.5L615.74-25.5Q615.74-24.35 615.79-23.5L615.79-23.5 615.84-21.55 615.79-20.35Q615.74-19.8 615.74-19.15L615.74-19.15Q615.74-18.05 615.84-17.25L615.84-17.25Q615.94-15.65 615.94-15.65L615.94-15.65 615.79-15.65Q615.79-7.3 616.14-6.45L616.14-6.45 616.14-1.95Q616.34-1.55 616.34-0.9L616.34-0.9Q616.34-0.5 616.07-0.2 615.79 0.1 615.39 0.1L615.39 0.1Q614.34 0.1 614.34-2.6L614.34-2.6 614.44-4.2Q614.54-4.95 614.54-5.85L614.54-5.85Q614.54-8.25 614.39-13.05L614.39-13.05Q614.24-17.85 614.24-20.25L614.24-20.25Q614.24-21.7 614.39-24.7L614.39-24.7Q614.54-27.65 614.54-29.1L614.54-29.1 614.54-29.75Q614.54-32.2 615.44-32.95L615.44-32.95 615.59-32.8 616.09-32.9Q616.29-32.85 616.54-32.6L616.54-32.6Q616.74-32.4 616.74-32.15L616.74-32.15 616.84-31.85Q616.84-31.75 616.87-31.68 616.89-31.6 616.89-31.6L616.89-31.6Q617.69-28.05 620.49-21.65L620.49-21.65Q623.34-14.9 624.04-12.7L624.04-12.7Q624.54-10.95 624.84-9.6L624.84-9.6Q625.79-5.35 627.09-3.05L627.09-3.05 627.19-3.2Q628.34-14.3 628.34-30.45L628.34-30.45 628.29-31.05Q628.24-31.3 628.24-31.7L628.24-31.7Q628.24-32.75 628.94-32.75L628.94-32.75Q629.39-32.75 629.72-32.3 630.04-31.85 630.04-31.3L630.04-31.3 630.04-27.95 629.79-27.55Q629.79-22.8 629.24-11.95 628.69-1.1 628.19-0.15L628.19-0.15 627.34 0.05 627.34 0.1 627.29 0.05 626.79 0.2ZM642.94 0.35Q640.64 0.35 639.54-0.2 638.44-0.75 637.91-2.33 637.39-3.9 636.99-7.35L636.99-7.35Q636.39-12.4 636.39-15.2L636.39-15.2Q636.39-16.9 636.59-19.1L636.59-19.1 636.89-22.25Q637.14-26 637.46-27.93 637.79-29.85 638.91-31.33 640.04-32.8 642.39-33.05L642.39-33.05Q642.64-33.1 643.19-33.1L643.19-33.1Q644.74-33.1 644.74-32.4L644.74-32.4Q644.74-32.1 644.41-31.88 644.09-31.65 643.74-31.65L643.74-31.65 643.24-31.7 642.79-31.75Q641.94-31.75 641.26-31.2 640.59-30.65 640.14-29.6L640.14-29.6Q639.09-27.1 638.79-24.7L638.79-24.7Q638.39-21.55 638.29-19.2L638.29-19.2 638.24-15.35Q638.24-12.9 638.39-11.7L638.39-11.7Q638.74-11.15 638.86-10.03 638.99-8.9 639.09-6.95L639.09-6.95Q639.19-5.2 639.54-3.98 639.89-2.75 640.79-1.95L640.79-1.95Q641.79-1.1 643.54-1.1L643.54-1.1Q644.99-1.1 645.59-2.7L645.59-2.7Q646.29-4.4 646.39-6.2L646.39-6.2Q646.54-8.45 646.54-10L646.54-10 646.54-12.75Q646.04-13.25 644.79-13.25L644.79-13.25 644.39-13.25Q644.14-13.2 643.84-13.2L643.84-13.2Q642.64-13.2 642.64-13.8L642.64-13.8Q642.64-14.65 643.84-14.65L643.84-14.65Q644.69-14.65 645.24-14.6L645.24-14.6 646.34-14.55Q647.29-14.4 647.84-14.2L647.84-14.2Q648.44-14 648.44-13.65L648.44-13.65Q648.44-13 648.14-11.8L648.14-11.8Q647.89-10.4 647.89-9.9L647.89-9.9Q647.89-7.8 647.99-6.1L647.99-6.1Q648.04-4.35 648.04-2.25L648.04-2.25Q645.49 0.35 642.94 0.35L642.94 0.35Z" opacity="1" transform="matrix(1,0,0,1,0,0)" fill="#61777f" class="slogan-text-1" data-fill-palette-color="secondary" id="text-1"></path></svg></g></svg></g></svg></g></svg></g></svg></g></svg></g></svg></g><defs></defs></svg><rect width="320" height="360" fill="none" stroke="none" visibility="hidden"></rect></g></svg></g></svg>